<?xml version="1.0" encoding="UTF-8" standalone="no"?>
<!DOCTYPE svg PUBLIC "-//W3C//DTD SVG 1.1//EN" "http://www.w3.org/Graphics/SVG/1.1/DTD/svg11.dtd">
<svg width="100%" height="100%" viewBox="0 0 160 370" version="1.1" xmlns="http://www.w3.org/2000/svg" xml:space="preserve" style="fill-rule:evenodd;clip-rule:evenodd;stroke-linecap:round;stroke-miterlimit:1.5;">
    <g transform="matrix(0.949307,0,0,0.66229,-774.182,-224.471)">
        <path d="M971.653,653.818C975.03,652.564 968.583,711.155 968.583,735.567L968.583,810.782C968.583,848.914 946.984,879.873 920.381,879.873L879.065,879.873C852.462,879.873 830.864,848.914 830.864,810.782L830.864,735.567C830.864,710.148 825.518,661.441 827.335,660.108C839.681,651.058 857.27,646.977 860.339,647.091C872.547,647.546 886.112,652.934 899.877,658.251C912.553,663.147 925.412,667.995 937.449,667.75C944.239,667.612 971.653,653.818 971.653,653.818Z" style="fill:white;"/>
    </g>
    <g transform="matrix(0.949307,0,0,1.01048,-774.182,-530.833)">
        <path d="M979.086,712.519C979.086,712.519 975.956,750.598 975.956,769.657C975.956,789.921 979.093,833.93 979.093,833.93L979.117,834.259L979.117,834.589C979.117,865.044 952.798,889.769 920.381,889.769L879.065,889.769C846.648,889.769 820.33,865.044 820.33,834.589L820.33,834.259L820.353,833.93C820.353,833.93 823.49,789.921 823.49,769.657C823.49,750.598 820.361,712.519 820.361,712.519L820.33,712.14L820.33,711.76C820.33,690.735 832.874,672.439 851.31,663.128C851.305,660.754 851.293,658.609 851.267,655.839L851.173,645.855L948.18,645.855L948.179,663.15C966.592,672.468 979.117,690.751 979.117,711.76L979.117,712.14L979.086,712.519ZM968.583,711.76C968.583,692.482 955.732,676.001 937.646,669.473L937.646,655.751L861.801,655.751C861.848,660.699 861.848,663.668 861.848,669.456C843.737,675.973 830.864,692.465 830.864,711.76C830.864,711.76 834.024,750.345 834.024,769.657C834.024,790.129 830.864,834.589 830.864,834.589C830.864,859.582 852.462,879.873 879.065,879.873L920.381,879.873C946.984,879.873 968.583,859.582 968.583,834.589C968.583,834.589 965.422,790.129 965.422,769.657C965.422,750.345 968.583,711.76 968.583,711.76Z" style="fill:rgb(128,128,128);"/>
    </g>
    <g transform="matrix(0.732449,0,0,0.994575,-281.725,-306.891)">
        <path d="M525.022,458.638C525.661,457.839 525.732,457.828 526.953,457.598C528.563,457.294 528.6,457.474 530.065,458.057C542.421,462.981 565.432,477.659 566.709,502.227C567.345,514.474 566.347,529.075 566.066,542.466C565.866,552.041 565.779,552.038 565.902,561.613C566.257,589.125 568.261,608.671 565.968,621.918C562.751,640.507 552.108,652.413 536.995,662.574C536.044,663.213 536.003,663.256 534.713,663.256C534.69,663.256 532.453,662.577 532.449,662.568C532.13,662.01 531.503,661.496 531.503,660.891C531.503,659.729 531.807,659.775 532.86,658.908C557.764,638.414 554.795,619.803 552.795,600.225C550.842,581.102 548.607,566.11 549.902,545.651C550.941,529.245 554.669,506.262 554.106,498.084C552.871,480.151 537.215,467.368 526.447,462.01C525.236,461.408 525.097,461.426 524.726,460.383C524.408,459.487 524.384,459.436 525.022,458.638Z" style="fill:rgb(128,128,128);fill-opacity:0.5;"/>
    </g>
    <g transform="matrix(-0.459477,0,0,0.914521,286.489,-261.624)">
        <path d="M523.254,457.872C521.724,458.763 521.746,458.831 521.922,460.004C522.185,461.754 523.001,461.606 525.397,462.885C533.578,467.254 546.858,477.729 549.67,493.056C550.644,498.369 550.822,502.87 546.771,524.495C542.782,545.794 542.972,554.247 543.03,556.839C543.577,581.154 550.541,596.755 550.255,618.928C550.03,636.303 543.589,645.842 534.068,653.854C531.665,655.876 533.046,656.052 535.624,658.022C535.634,658.03 540.068,658.493 540.105,658.489C543.019,658.213 542.877,657.989 544.632,656.787C559.969,646.276 569.45,633.388 571.12,606.464C572.062,591.278 569.074,577.214 569.124,555.5C569.171,535.366 572.074,515.5 570.588,501.127C568.316,479.144 547.475,463.813 531.709,457.567C529.774,456.8 527.639,456.877 527.269,456.891C524.924,456.975 524.79,456.978 523.254,457.872Z" style="fill:rgb(128,128,128);fill-opacity:0.5;"/>
    </g>
    <g transform="matrix(1,0,0,1,-420.068,-308.211)">
        <path d="M515.9,364.956C528.288,370.771 536.874,383.361 536.874,397.94C536.874,401.117 520.557,399.325 500.46,399.325C480.362,399.325 464.045,401.117 464.045,397.94C464.045,383.361 472.631,370.771 485.019,364.956L485.019,353.36C481.034,349.394 478.566,343.905 478.566,337.844C478.566,325.761 488.376,315.951 500.46,315.951C512.543,315.951 522.353,325.761 522.353,337.844C522.353,343.905 519.885,349.394 515.9,353.36L515.9,364.956Z" style="fill:rgb(231,229,228);"/>
    </g>
    <g transform="matrix(1.01878,0,0,1.02577,-429.903,-326.227)">
        <path d="M557.546,414.964L557.546,439.93C557.546,444.523 553.791,448.252 549.167,448.252L451.709,448.252C447.085,448.252 443.33,444.523 443.33,439.93L443.33,414.964C443.33,410.372 447.085,406.643 451.709,406.643L549.167,406.643C553.791,406.643 557.546,410.372 557.546,414.964Z" style="fill:rgb(231,229,228);"/>
        <path d="M557.546,414.964L557.546,439.93C557.546,444.523 553.791,448.252 549.167,448.252L451.709,448.252C447.085,448.252 443.33,444.523 443.33,439.93L443.33,414.964C443.33,410.372 447.085,406.643 451.709,406.643L549.167,406.643C553.791,406.643 557.546,410.372 557.546,414.964ZM550.675,414.964C550.675,414.138 549.999,413.467 549.167,413.467L451.709,413.467C450.877,413.467 450.201,414.138 450.201,414.964L450.201,439.93C450.201,440.757 450.877,441.428 451.709,441.428L549.167,441.428C549.999,441.428 550.675,440.757 550.675,439.93L550.675,414.964Z" style="fill:rgb(128,128,128);"/>
    </g>
    <g transform="matrix(1,0,0,1,-420.068,-315.211)">
        <path d="M464.045,409.916L464.045,434.043" style="fill:none;stroke:rgb(128,128,128);stroke-width:5px;"/>
    </g>
    <g transform="matrix(1,0,0,0.875662,-405.413,-264.242)">
        <path d="M464.045,409.916L464.045,434.043" style="fill:none;stroke:rgb(128,128,128);stroke-width:5.32px;"/>
    </g>
    <g transform="matrix(1,0,0,1.15714,-346.613,-379.626)">
        <path d="M464.045,409.916L464.045,434.043" style="fill:none;stroke:rgb(128,128,128);stroke-width:4.62px;"/>
    </g>
</svg>
