<?xml version="1.0" encoding="UTF-8" standalone="no"?><!DOCTYPE svg PUBLIC "-//W3C//DTD SVG 1.1//EN" "http://www.w3.org/Graphics/SVG/1.1/DTD/svg11.dtd"><svg width="100%" height="100%" viewBox="0 0 183 188" version="1.1" xmlns="http://www.w3.org/2000/svg" xml:space="preserve" style="fill-rule:evenodd;clip-rule:evenodd;stroke-linejoin:round;stroke-miterlimit:2;"><ellipse cx="17.723" cy="135.79" rx="10.723" ry="11.282" style="fill:#f5f5f4;"/><path d="M17.723,117.508c9.682,0 17.724,8.096 17.724,18.282c-0,10.186 -8.042,18.282 -17.724,18.282c-9.681,0 -17.723,-8.096 -17.723,-18.282c-0,-10.186 8.042,-18.282 17.723,-18.282Zm0,7c-5.918,0 -10.723,5.056 -10.723,11.282c-0,6.227 4.805,11.282 10.723,11.282c5.919,0 10.724,-5.055 10.724,-11.282c-0,-6.226 -4.805,-11.282 -10.724,-11.282Z" style="fill:#57534e;"/><ellipse cx="159.586" cy="135.79" rx="10.723" ry="11.282" style="fill:#f5f5f4;"/><path d="M159.586,117.508c9.682,0 17.723,8.096 17.723,18.282c0,10.186 -8.041,18.282 -17.723,18.282c-9.682,0 -17.724,-8.096 -17.724,-18.282c0,-10.186 8.042,-18.282 17.724,-18.282Zm-0,7c-5.919,0 -10.724,5.056 -10.724,11.282c0,6.227 4.805,11.282 10.724,11.282c5.918,0 10.723,-5.055 10.723,-11.282c0,-6.226 -4.805,-11.282 -10.723,-11.282Z" style="fill:#57534e;"/><path d="M88.655,47.507c36.605,0 66.323,19.61 66.323,66.371c0,54.182 -29.718,66.371 -66.323,66.371c-36.605,0 -66.324,-12.189 -66.324,-66.371c0,-46.761 29.719,-66.371 66.324,-66.371Z" style="fill:#f5f5f4;"/><path d="M88.655,40.507c20.151,0 38.339,5.601 51.557,17.435c13.266,11.876 21.766,30.1 21.766,55.936c0,29.934 -8.738,48.072 -22.003,58.922c-13.164,10.768 -31.251,14.449 -51.32,14.449c-20.07,0 -38.157,-3.681 -51.321,-14.449c-13.265,-10.85 -22.003,-28.988 -22.003,-58.922c0,-25.836 8.5,-44.06 21.766,-55.936c13.218,-11.834 31.406,-17.435 51.558,-17.435Zm-0,7c-36.605,0 -66.324,19.61 -66.324,66.371c0,54.182 29.719,66.371 66.324,66.371c36.605,0 66.323,-12.189 66.323,-66.371c0,-46.761 -29.718,-66.371 -66.323,-66.371Z" style="fill:#57534e;"/><path d="M97.712,12.124c-0.041,0.07 -0.055,0.101 -0.042,0.072c0.188,-0.423 0.197,-0.396 0.042,-0.072Zm-11.047,24.351c2.579,-0.07 4.753,0.129 6.8,0.328c4.429,0.432 7.131,1.088 8.423,1.582c1.401,0.537 1.898,1.708 1.984,1.911c0.007,0.015 0.03,2.68 0.024,2.686c-2.009,1.968 -2.068,2.714 -4.748,1.858c-2.337,-0.746 -9.644,-1.719 -13.909,-1.355c-4.902,0.419 -8.595,1.668 -9.216,1.743c-2.508,0.304 -4.509,-2.189 -3.669,-4.572c0.046,-0.131 0.298,-0.844 0.968,-1.437c0.433,-0.383 4.918,-2.929 9.016,-8.273c1.508,-1.967 2.752,-4.073 3.661,-6.487c-5.922,-2.85 -9.8,-14.005 -7.762,-19.873c2.033,-5.856 9.234,-5.846 12.874,-1.431c2.632,3.193 3.46,8.717 3.126,14.108c0.312,-0.338 0.634,-0.716 0.966,-1.14c1.343,-1.714 2.217,-3.387 2.509,-3.999c0.128,-0.221 0.522,-0.823 1.159,-1.072c0.016,-0.006 1.654,0.024 1.66,0.031c0.38,0.396 0.937,0.68 1.137,1.191c0.439,1.119 0.207,1.163 -0.309,2.253c-0.341,0.718 -3.19,7.18 -8.208,9.662c-0.256,0.985 -0.549,1.918 -0.874,2.777c-1.412,3.732 -3.472,6.914 -5.612,9.509Zm0.711,-17.499c0.166,-1.169 0.27,-2.407 0.307,-3.723c0.111,-3.858 -0.543,-8.614 -2.999,-8.94c-0.152,-0.02 -0.292,-0.016 -0.445,-0.014l-0.014,-0.034c-0.001,0.006 -0.006,0.014 -0.017,0.024c-0.639,0.618 -0.849,3.677 0.223,7.129c0.771,2.482 1.863,4.442 2.945,5.558Zm-3.159,-12.729l-0.487,-1.122l0.465,1.091c0.008,0.014 0.016,0.023 0.022,0.031Z" style="fill:#57534e;"/><path d="M98.09,51.4c0.513,0.155 0.531,0.176 0.781,0.651c0.398,0.754 0.118,0.792 -0.075,1.624c-0.733,3.17 -4.023,13.622 -12.137,20.74c-7.736,6.787 -20.399,12.336 -28.638,14.248c-1.08,0.251 -1.103,-0.01 -1.782,-0.891c-0.006,-0.007 0.119,-1.005 0.127,-1.02c0.167,-0.291 0.511,-0.44 0.795,-0.618c0.02,-0.013 2.869,-0.972 7.612,-3.62c10.209,-5.7 18.157,-13.651 19.086,-14.528c0.497,-0.469 3.897,-3.748 6.017,-6.208c0.339,-0.393 3.889,-4.361 6.35,-9.036c0.043,-0.082 0.09,-0.161 0.127,-0.245c0.254,-0.594 0.159,-0.7 0.729,-1c0.472,-0.249 0.497,-0.251 1.008,-0.097Z" style="fill:#57534e;"/><circle cx="61.435" cy="129.613" r="6.177" style="fill:#57534e;"/><path d="M93.329,137.172c-0.87,1.624 -2.514,0.954 -2.726,0.868c-1.463,-0.597 -2.526,0.085 -2.718,0.091c-0.507,0.015 -1.055,0.175 -1.521,-0.025c-0.015,-0.006 -1.074,-1.093 -1.074,-1.102c0.019,-1.704 -0.22,-2.097 1.378,-2.69c3.035,-1.125 5.232,-0.081 5.676,0.122c0.823,0.376 1.056,1.086 1.097,1.21c0.038,0.116 0.268,0.815 -0.112,1.526Z" style="fill:#57534e;"/><circle cx="50.944" cy="146.614" r="9" style="fill:#ffc5bd;"/><circle cx="126.365" cy="146.614" r="9" style="fill:#ffc5bd;"/><path d="M101.128,146.449c-0.133,0.172 1.165,-1.502 2.692,-0.361c0.62,0.463 0.633,0.504 0.735,1.271c0.138,1.023 -0.039,1.025 -0.696,1.82c-1.508,1.823 -5.619,6.113 -10.542,7.774c-5.191,1.75 -10.904,1.044 -17.701,-5.448c-1.072,-1.024 -2.466,-2.652 -2.494,-2.734c-0.157,-0.46 -0.433,-0.93 -0.368,-1.412c0.002,-0.017 0.735,-1.275 0.743,-1.278c0.469,-0.124 0.928,-0.429 1.408,-0.364c1.032,0.138 0.938,0.363 1.621,1.145c0.333,0.381 5.311,6.254 12.741,5.912c0.636,-0.029 4.816,-0.042 9.414,-3.871c1.446,-1.204 2.342,-2.318 2.447,-2.454Zm0,-0c0.015,-0.019 0.014,-0.018 0,-0Z" style="fill:#57534e;"/><circle cx="115.874" cy="129.613" r="6.177" style="fill:#57534e;"/></svg>
